<?xml version="1.0" encoding="utf-8"?>
<!-- Generator: Adobe Illustrator 24.0.2, SVG Export Plug-In . SVG Version: 6.00 Build 0)  -->
<svg version="1.1" id="Layer_5" xmlns="http://www.w3.org/2000/svg" xmlns:xlink="http://www.w3.org/1999/xlink" x="0px" y="0px"
	 viewBox="0 0 1385 1385" style="enable-background:new 0 0 1385 1385;" xml:space="preserve">
<style type="text/css">
	.st0{fill-rule:evenodd;clip-rule:evenodd;fill:#F0505C;fill-opacity:0.05;}
</style>
<g>
	<path class="st0" d="M692.5,1384.9c-93.29,0-184.02-18.37-269.65-54.59c-82.49-34.89-156.49-84.75-219.95-148.21
		c-63.45-63.45-113.32-137.46-148.22-219.96C18.47,876.51,0.1,785.79,0.1,692.5c0-93.29,18.36-184.01,54.59-269.64
		c34.89-82.5,84.76-156.51,148.22-219.96c63.45-63.45,137.45-113.32,219.96-148.21C508.49,18.46,599.22,0.1,692.5,0.1
		c93.29,0,184.01,18.36,269.64,54.59c82.5,34.89,156.5,84.76,219.96,148.21c63.46,63.46,113.32,137.47,148.22,219.97
		c36.22,85.62,54.58,176.34,54.58,269.63c0,93.29-18.37,184.01-54.59,269.65c-34.89,82.49-84.75,156.49-148.21,219.95
		c-63.46,63.46-137.46,113.33-219.96,148.22C876.51,1366.54,785.79,1384.9,692.5,1384.9"/>
	<path class="st0" d="M692.5,1314.9c-83.87,0-165.42-16.51-242.38-49.06c-74.15-31.36-140.67-76.18-197.72-133.24
		c-57.05-57.04-101.88-123.57-133.24-197.73C86.6,857.92,70.1,776.37,70.1,692.5c0-83.87,16.5-165.42,49.06-242.38
		c31.37-74.16,76.2-140.68,133.24-197.73c57.04-57.05,123.57-101.87,197.73-133.24C527.09,86.6,608.63,70.1,692.5,70.1
		c83.87,0,165.42,16.5,242.38,49.06c74.15,31.36,140.68,76.19,197.73,133.24c57.05,57.05,101.88,123.58,133.24,197.74
		c32.55,76.95,49.05,158.49,49.05,242.37c0,83.87-16.51,165.42-49.06,242.38c-31.36,74.14-76.18,140.67-133.23,197.72
		c-57.05,57.05-123.58,101.88-197.73,133.24C857.92,1298.4,776.37,1314.9,692.5,1314.9"/>
	<path class="st0" d="M692.5,1244.9c-74.45,0-146.83-14.65-215.11-43.53c-65.8-27.83-124.85-67.62-175.5-118.26
		c-50.64-50.64-90.43-109.69-118.27-175.5c-28.88-68.28-43.53-140.65-43.53-215.1s14.64-146.83,43.53-215.11
		c27.84-65.81,67.63-124.86,118.27-175.5c50.64-50.64,109.69-90.43,175.5-118.27c68.28-28.88,140.66-43.53,215.1-43.53
		c74.45,0,146.82,14.65,215.11,43.53c65.81,27.83,124.86,67.63,175.5,118.27c50.65,50.65,90.44,109.7,118.27,175.51
		c28.88,68.27,43.52,140.64,43.52,215.1c0,74.45-14.64,146.83-43.53,215.11c-27.83,65.8-67.62,124.85-118.26,175.5
		c-50.64,50.64-109.69,90.43-175.5,118.27C839.32,1230.26,766.95,1244.9,692.5,1244.9"/>
	<path class="st0" d="M692.5,1174.9c-65.03,0-128.23-12.78-187.84-38c-57.46-24.3-109.03-59.06-153.27-103.29
		c-44.24-44.23-78.99-95.8-103.3-153.27c-25.21-59.61-38-122.8-38-187.84c0-65.03,12.78-128.23,38-187.84
		c24.31-57.47,59.06-109.04,103.3-153.27c44.23-44.23,95.8-78.99,153.27-103.29c59.61-25.21,122.81-38,187.84-38
		c65.03,0,128.23,12.78,187.84,38c57.47,24.31,109.03,59.06,153.27,103.29c44.24,44.24,78.99,95.81,103.3,153.28
		c25.21,59.6,37.99,122.8,37.99,187.83c0,65.03-12.78,128.23-38,187.84c-24.3,57.46-59.06,109.03-103.29,153.27
		c-44.23,44.23-95.8,78.99-153.27,103.3C820.73,1162.12,757.53,1174.9,692.5,1174.9"/>
	<path class="st0" d="M692.5,1104.9c-55.61,0-109.64-10.92-160.57-32.47c-49.12-20.78-93.21-50.49-131.04-88.32
		c-37.83-37.83-67.55-81.92-88.33-131.04c-21.54-50.93-32.46-104.96-32.46-160.57c0-55.61,10.92-109.64,32.46-160.57
		c20.78-49.12,50.5-93.21,88.33-131.04c37.83-37.83,81.92-67.55,131.04-88.32c50.93-21.54,104.96-32.47,160.57-32.47
		s109.64,10.92,160.57,32.47c49.12,20.78,93.21,50.49,131.04,88.32c37.83,37.83,67.55,81.92,88.32,131.04
		c21.54,50.93,32.47,104.95,32.47,160.57c0,55.61-10.92,109.64-32.47,160.57c-20.78,49.12-50.49,93.21-88.32,131.04
		c-37.83,37.83-81.92,67.54-131.04,88.32C802.14,1093.98,748.11,1104.9,692.5,1104.9"/>
	<path class="st0" d="M692.5,1034.9c-46.19,0-91.04-9.06-133.3-26.94c-40.78-17.25-77.39-41.93-108.81-73.35
		c-31.42-31.42-56.1-68.03-73.35-108.82c-17.87-42.26-26.94-87.11-26.94-133.3c0-46.19,9.06-91.04,26.94-133.3
		c17.25-40.78,41.93-77.39,73.35-108.82c31.42-31.42,68.03-56.1,108.81-73.35c42.26-17.87,87.11-26.94,133.3-26.94
		s91.04,9.06,133.3,26.94c40.78,17.25,77.39,41.93,108.81,73.35c31.42,31.42,56.1,68.03,73.35,108.82
		c17.87,42.26,26.94,87.1,26.94,133.3c0,46.19-9.06,91.04-26.94,133.3c-17.25,40.78-41.93,77.39-73.35,108.82
		c-31.42,31.42-68.03,56.1-108.81,73.35C783.54,1025.84,738.69,1034.9,692.5,1034.9"/>
</g>
</svg>
