<?xml version="1.0" encoding="utf-8"?>
<!-- Generator: Adobe Illustrator 24.0.2, SVG Export Plug-In . SVG Version: 6.00 Build 0)  -->
<svg version="1.1" id="Layer_1" xmlns="http://www.w3.org/2000/svg" xmlns:xlink="http://www.w3.org/1999/xlink" x="0px" y="0px"
	 viewBox="0 0 545 545" style="enable-background:new 0 0 545 545;" xml:space="preserve">
<style type="text/css">
	.st0{fill-rule:evenodd;clip-rule:evenodd;fill:#FF4D5A;}
	.st1{fill:none;stroke:#173651;stroke-width:6;stroke-dasharray:6;}
	.st2{fill:none;stroke:#183651;stroke-width:6;}
	.st3{fill:none;stroke:#1A3750;stroke-width:6;stroke-linecap:square;}
	.st4{fill-rule:evenodd;clip-rule:evenodd;fill:#CECECE;stroke:#183651;stroke-width:6;}
	
		.st5{fill-rule:evenodd;clip-rule:evenodd;fill:#FFFFFF;stroke:#173651;stroke-width:6;stroke-linecap:round;stroke-linejoin:round;}
	.st6{fill-rule:evenodd;clip-rule:evenodd;fill:#2AA0DA;}
	.st7{fill:none;stroke:#FFFFFF;stroke-width:6;stroke-linecap:round;}
</style>
<g id="Page-1">
	<g id="Artboard-3-Copy">
		<g id="Group-3" transform="translate(3.000000, 3.000000)">
			<circle id="Oval" class="st0" cx="269.4" cy="269.4" r="272.4"/>
			<path id="Path-5" class="st1" d="M252.55,482.83h90.23c36.15-1.95,54.21-24.44,54.18-67.46c-0.03-43.02-0.03-79.52,0-109.5"/>
			<g id="Group" transform="translate(4.000000, 80.000000)">
				<polygon id="Polygon" class="st2" points="161.49,172.55 281.68,259.87 235.77,401.16 87.22,401.16 41.31,259.87 				"/>
				<path id="Line-49" class="st3" d="M160.09,190.8v80.15"/>
				<path id="Line-49-Copy-4" class="st3" d="M66.01,259.61l77.41,20.74"/>
				<path id="Line-49-Copy-5" class="st3" d="M255.76,259.61l-77.41,20.74"/>
				<path id="Line-49-Copy" class="st3" d="M172.73,307.35l40.07,69.41"/>
				<path id="Line-49-Copy-2" class="st3" d="M149.56,314.21l-40.07,69.41"/>
				<circle id="Oval-Copy" class="st4" cx="160.09" cy="300.33" r="40.72"/>
				<circle id="Oval-Copy-2" class="st4" cx="280.85" cy="261.01" r="32.29"/>
				<circle id="Oval-Copy-3" class="st4" cx="160.09" cy="173.95" r="32.29"/>
				<circle id="Oval-Copy-5" class="st4" cx="87.08" cy="401.42" r="32.29"/>
				<circle id="Oval-Copy-6" class="st4" cx="238.72" cy="401.42" r="32.29"/>
				<circle id="Oval-Copy-4" class="st4" cx="36.53" cy="261.01" r="32.29"/>
			</g>
			<g id="Group-2" transform="translate(105.000000, 15.000000)">
				<rect id="Rectangle-5" x="268.31" y="265.63" class="st5" width="50.55" height="58.97"/>
				<path id="Combined-Shape" class="st5" d="M186.87,128.03c0-57.39,46.52-103.9,103.91-103.9s103.91,46.52,103.91,103.9
					c0,39.04-28.08,63.66-42.12,90.8c-7.49,18.1-11.23,42.12-11.23,72.08h-98.29c1.87-35.57-0.94-59.09-8.42-70.57
					C223.37,203.13,186.87,168.2,186.87,128.03z"/>
				<path id="Combined-Shape_1_" class="st6" d="M332.89,178.58C312.3,205.2,302,230.47,302,254.4v28.08h-22.47V254.4
					c0-23.92-10.3-49.2-30.89-75.82c-16.85-21.04-25.27-38.82-25.27-53.36c0-37.22,30.18-67.4,67.4-67.4s67.4,30.18,67.4,67.4
					C358.17,139.76,349.74,157.54,332.89,178.58z"/>
				<path id="Path-4" class="st7" d="M290.77,88.71c22.47,1.87,33.7,13.11,33.7,33.7"/>
			</g>
			<path id="Path-7" class="st1" d="M294.67,235.7c-33.7-39.32-42.12-86.12-25.27-140.41s58.97-84.25,126.37-89.86
				c65.53,5.62,107.65,32.76,126.37,81.44c18.72,48.68,13.11,96.42-16.85,143.22"/>
		</g>
	</g>
</g>
</svg>
