<?xml version="1.0" encoding="utf-8"?>
<!-- Generator: Adobe Illustrator 24.0.2, SVG Export Plug-In . SVG Version: 6.00 Build 0)  -->
<svg version="1.1" id="Layer_1" xmlns="http://www.w3.org/2000/svg" xmlns:xlink="http://www.w3.org/1999/xlink" x="0px" y="0px"
	 viewBox="0 0 1301 952" style="enable-background:new 0 0 1301 952;" xml:space="preserve">
<style type="text/css">
	.st0{fill:none;stroke:#FFFFFF;stroke-width:72;stroke-miterlimit:10;}
	.st1{fill:none;stroke:#000000;stroke-width:72;stroke-miterlimit:10;}
</style>
<g id="Layer_1_1_">
</g>
<path class="st0" d="M478.4,746.3C508.8,867.2,601.1,929.3,728.1,893c72.3-20.6,126.4-81.7,138.3-155.9
	c20.9-130.4-83.1-238.4-206.8-231l-34,2c-114.8,6.9-211-81.6-211.4-196.6c-0.4-104.2,89.7-191.2,185.9-198
	c105.3-7.5,170.8,44.8,204.7,153.8"/>
<path class="st1" d="M519.9,735.6c30.4,120.8,122.8,182.9,249.7,146.7c72.3-20.6,126.4-81.7,138.3-155.9
	c20.9-130.4-83.1-238.4-206.8-231l-34,2c-114.8,6.9-211-81.6-211.4-196.6c-0.4-104.2,89.7-191.2,185.9-198
	c105.3-7.5,170.8,44.8,204.7,153.8"/>
</svg>
