<?xml version="1.0" encoding="utf-8"?>
<!-- Generator: Adobe Illustrator 24.0.2, SVG Export Plug-In . SVG Version: 6.00 Build 0)  -->
<svg version="1.1" xmlns="http://www.w3.org/2000/svg" xmlns:xlink="http://www.w3.org/1999/xlink" x="0px" y="0px"
	 viewBox="0 0 1301 952" style="enable-background:new 0 0 1301 952;" xml:space="preserve">
<style type="text/css">
	.st0{fill:none;stroke:#EF4748;stroke-width:72;stroke-miterlimit:10;}
	.st1{fill:none;stroke:#000000;stroke-width:72;stroke-miterlimit:10;}
</style>
<g id="Layer_1">
</g>
<g id="Layer_2">
	<path class="st0" d="M610.54,445.87c73.39-43.39,174.05-8.96,224.82,76.92s32.43,190.66-40.96,234.05
		c-73.39,43.39-174.05,8.96-224.82-76.92"/>
	<path class="st0" d="M610.54,445.87c-73.39,43.39-174.05,8.96-224.82-76.92S353.3,178.29,426.69,134.9s174.05-8.96,224.82,76.92"/>
	<path class="st1" d="M652.29,421.55c73.39-43.39,174.05-8.96,224.82,76.92s32.43,190.66-40.96,234.05
		c-73.39,43.39-174.05,8.96-224.82-76.92"/>
	<path class="st1" d="M652.29,421.55c-73.39,43.39-174.05,8.96-224.82-76.92s-32.43-190.66,40.96-234.05s174.05-8.96,224.82,76.92"
		/>
</g>
</svg>
